<?xml version="1.0" standalone="no"?>
<!DOCTYPE svg PUBLIC "-//W3C//DTD SVG 20010904//EN"
 "http://www.w3.org/TR/2001/REC-SVG-20010904/DTD/svg10.dtd">
<svg version="1.0" xmlns="http://www.w3.org/2000/svg"
 width="1098.000000pt" height="1098.000000pt" viewBox="0 0 1098.000000 1098.000000"
 preserveAspectRatio="xMidYMid meet">
<metadata>
Created by potrace 1.14, written by Peter Selinger 2001-2017
</metadata>
<g transform="translate(0.000000,1098.000000) scale(0.100000,-0.100000)"
fill="#000000" stroke="none">
<path d="M4595 9489 c-1053 -95 -1941 -563 -2490 -1311 -131 -179 -602 -953
-724 -1193 -28 -54 -40 -161 -23 -204 8 -23 16 -12 86 115 42 76 126 238 188
359 217 430 366 662 630 977 318 378 689 658 1138 856 453 200 875 293 1460
322 247 12 395 -1 395 -34 0 -23 -3 -24 -200 -67 -134 -30 -153 -37 -187 -67
-21 -19 -38 -39 -38 -46 0 -6 11 -24 24 -41 l24 -30 254 -1 c139 0 269 -5 288
-10 l34 -10 -31 -22 c-56 -40 -119 -62 -235 -83 -124 -22 -189 -46 -231 -87
l-28 -26 53 -25 c48 -22 72 -25 261 -32 214 -8 307 -24 307 -55 0 -26 -126
-52 -318 -67 -162 -12 -185 -16 -204 -34 -33 -34 -7 -97 45 -107 12 -3 104
-22 205 -42 166 -35 182 -40 182 -59 0 -29 -58 -55 -123 -55 -29 0 -131 9
-227 20 -231 26 -325 26 -367 0 -69 -41 -61 -125 28 -301 58 -116 56 -122 -27
-116 -38 2 -90 22 -200 74 -226 108 -308 129 -438 111 -276 -38 -531 -184
-811 -463 -321 -320 -552 -678 -761 -1174 -25 -62 -44 -114 -41 -117 8 -9 64
6 75 19 6 7 72 129 147 271 195 372 259 478 406 672 196 259 467 486 734 614
111 54 149 66 247 80 106 15 188 -1 336 -66 165 -73 305 -124 343 -124 36 0
89 21 108 43 28 35 18 106 -31 212 -26 55 -49 114 -53 131 -10 53 26 57 330
33 208 -17 268 -18 299 -9 81 24 116 66 116 140 0 43 -5 50 -85 114 -40 32
-39 36 25 59 87 32 158 112 146 163 -11 43 -64 92 -119 110 -29 9 -55 19 -59
23 -4 4 8 31 28 60 45 66 54 121 29 167 -21 40 -70 60 -167 69 -38 4 -68 9
-68 11 0 2 13 22 29 45 66 91 62 152 -13 192 -39 21 -54 22 -321 23 -154 1
-325 -2 -380 -7z"/>
<path d="M7825 7884 c-55 -24 -110 -56 -122 -70 -29 -31 -30 -83 -4 -141 21
-45 45 -63 85 -63 41 0 235 90 253 117 23 35 13 113 -22 163 -36 53 -61 52
-190 -6z"/>
<path d="M5143 7820 c-47 -11 -78 -34 -113 -85 -80 -116 -119 -248 -127 -424
l-6 -124 -22 61 c-40 111 -109 197 -174 217 -45 14 -131 7 -164 -14 -67 -42
-149 -179 -184 -311 -24 -90 -24 -318 0 -413 46 -182 145 -297 258 -297 159 0
289 210 306 493 l6 108 27 -69 c70 -181 189 -264 298 -208 36 19 102 90 135
147 50 86 44 208 -13 269 -51 54 -112 33 -172 -60 -15 -24 -16 -24 -35 -7 -59
52 -56 272 5 347 l17 21 45 -30 c25 -17 58 -31 73 -31 56 0 107 87 107 181 0
138 -139 257 -267 229z m-478 -724 c40 -40 46 -164 10 -249 -28 -69 -77 -76
-108 -17 -36 70 -5 263 45 283 23 9 28 7 53 -17z"/>
<path d="M4055 7787 c-33 -15 -86 -71 -109 -115 -42 -82 -62 -228 -46 -342 13
-90 39 -150 114 -259 72 -106 74 -116 9 -81 -46 24 -62 25 -92 4 -55 -39 -79
-169 -45 -253 20 -52 93 -112 148 -122 60 -11 105 4 153 53 55 56 91 137 105
237 21 142 -12 253 -121 413 -56 83 -67 125 -28 114 61 -18 82 -18 109 3 56
44 75 190 35 268 -37 70 -160 113 -232 80z"/>
<path d="M5890 7661 c-77 -42 -142 -144 -175 -271 -21 -79 -21 -281 -1 -355
31 -118 108 -235 173 -261 53 -23 132 -18 178 10 l40 25 37 -36 c27 -27 45
-36 68 -35 63 2 95 61 109 197 5 58 9 74 10 44 3 -106 72 -292 134 -360 54
-60 119 -85 180 -68 50 13 135 97 171 167 46 92 32 222 -29 270 -45 36 -72 29
-130 -33 -28 -30 -54 -55 -58 -55 -5 0 -17 20 -28 45 -43 97 -13 325 43 325
11 0 36 -11 56 -25 47 -32 82 -32 115 1 34 34 51 86 50 155 0 96 -55 178 -146
217 -44 19 -127 15 -164 -8 -90 -55 -187 -279 -195 -450 -1 -25 -4 59 -8 185
-5 196 -8 236 -24 268 -36 74 -98 89 -152 36 l-32 -31 -41 28 c-55 36 -131 42
-181 15z m110 -368 c44 -56 8 -200 -45 -180 -43 17 -55 130 -19 185 19 29 38
28 64 -5z"/>
<path d="M5516 7625 c-67 -72 -59 -276 12 -314 79 -42 142 30 142 165 0 79
-21 129 -64 155 -41 25 -62 24 -90 -6z"/>
<path d="M3439 7592 c-108 -69 -178 -215 -215 -447 -11 -69 -18 -199 -21 -420
-5 -317 -5 -321 17 -373 59 -136 179 -88 197 78 7 67 4 65 106 74 l57 5 1 -37
c0 -36 2 -48 14 -120 8 -46 60 -102 95 -102 41 0 76 34 95 91 15 46 17 94 12
462 -6 435 -13 511 -58 632 -59 159 -189 227 -300 157z m117 -373 c6 -19 15
-105 19 -191 l7 -157 -34 -5 c-18 -4 -53 -7 -78 -9 l-44 -2 2 80 c3 138 33
258 74 302 28 29 40 25 54 -18z"/>
<path d="M7465 7613 c-78 -20 -189 -193 -220 -342 -21 -101 -21 -297 0 -391
33 -145 102 -251 190 -291 112 -51 226 17 305 183 56 118 74 220 67 382 -7
188 -52 318 -142 408 -48 48 -130 68 -200 51z m85 -363 c55 -30 52 -237 -6
-301 -27 -30 -61 -24 -81 14 -37 68 -14 258 35 287 22 12 29 12 52 0z"/>
<path d="M7029 7560 c-29 -17 -61 -109 -60 -172 1 -67 29 -141 59 -157 31 -17
77 -13 95 7 30 33 49 94 48 159 0 76 -22 128 -65 154 -34 21 -53 23 -77 9z"/>
<path d="M7945 7320 c-28 -11 -51 -39 -71 -85 -15 -36 -16 -79 -10 -435 4
-217 11 -414 16 -438 16 -88 98 -132 148 -79 34 36 50 86 77 247 36 213 52
286 75 337 44 100 69 14 79 -272 6 -189 9 -214 29 -252 38 -72 89 -83 140 -30
44 45 52 101 47 317 -6 254 -27 385 -81 492 -29 58 -78 114 -115 134 -45 23
-110 18 -154 -12 -38 -25 -65 -26 -65 -1 0 15 -57 71 -80 79 -8 3 -24 2 -35
-2z"/>
<path d="M5540 7227 c-14 -6 -36 -33 -48 -59 -23 -46 -24 -53 -23 -333 1 -311
6 -351 51 -397 52 -51 113 -27 147 60 16 42 18 80 18 332 0 313 -4 341 -56
385 -34 28 -52 31 -89 12z"/>
<path d="M7034 7141 c-59 -36 -64 -68 -64 -389 0 -311 5 -348 50 -394 35 -35
69 -36 108 -3 51 42 57 87 57 405 0 255 -2 290 -18 326 -18 39 -60 74 -89 74
-7 0 -27 -9 -44 -19z"/>
<path d="M2793 6046 c-199 -49 -371 -229 -482 -506 -68 -172 -198 -700 -216
-880 -14 -137 66 -241 184 -243 87 -1 151 56 186 165 24 77 26 77 185 46 103
-21 115 -25 112 -43 -2 -11 -6 -61 -9 -112 -5 -86 -4 -96 21 -147 30 -62 69
-92 133 -102 81 -13 169 56 201 156 29 90 155 727 183 920 18 128 14 320 -9
412 -42 170 -157 293 -308 333 -68 18 -110 18 -181 1z m119 -495 c13 -34 4
-151 -27 -331 -14 -80 -25 -146 -25 -147 0 -7 -67 -1 -141 12 -143 26 -132 20
-124 68 19 110 99 297 155 361 36 41 103 76 131 69 11 -3 25 -17 31 -32z"/>
<path d="M9229 6036 c-113 -24 -277 -145 -323 -238 -38 -76 -35 -127 20 -299
25 -79 86 -279 135 -444 120 -400 176 -567 202 -607 29 -43 99 -78 157 -78 68
0 144 41 176 95 37 63 38 97 11 223 -13 61 -20 112 -15 112 5 0 73 -34 149
-76 77 -41 155 -78 173 -81 45 -7 145 23 178 54 66 63 84 173 42 259 -18 38
-116 112 -258 196 l-45 27 38 83 c51 110 75 207 67 279 -7 67 -55 214 -90 273
-54 93 -194 186 -331 221 -70 18 -207 18 -286 1z m264 -467 c9 -12 17 -35 17
-53 0 -39 -65 -147 -84 -140 -22 8 -86 166 -86 212 0 39 117 24 153 -19z"/>
<path d="M8052 5948 c-47 -23 -62 -67 -72 -210 -5 -73 -9 -188 -10 -256 0 -68
-5 -132 -10 -143 -10 -17 -22 -19 -114 -19 l-103 0 -7 243 c-3 133 -9 254 -12
269 -11 47 -63 95 -113 102 -41 6 -45 5 -82 -35 l-39 -42 0 -561 c1 -309 5
-580 9 -604 10 -51 56 -112 95 -125 39 -13 83 8 114 56 25 38 27 49 30 179 l4
138 108 0 107 0 7 -61 c3 -34 6 -80 6 -103 0 -23 5 -57 10 -77 13 -46 68 -107
101 -113 51 -8 114 49 128 115 3 16 6 -120 6 -303 l0 -333 28 -47 c32 -56 69
-78 128 -78 36 0 48 6 80 40 41 43 59 91 59 158 0 53 11 58 135 63 l90 4 6
-85 c10 -145 65 -216 159 -206 36 3 51 11 76 40 54 62 56 85 56 503 -1 210 -6
436 -12 503 -20 213 -63 342 -147 431 -62 66 -111 91 -195 97 -59 4 -74 1
-125 -23 -163 -80 -278 -293 -316 -585 -13 -97 -14 -63 -13 430 1 509 0 537
-18 578 -29 64 -93 89 -154 60z m655 -933 c18 -72 29 -380 14 -389 -6 -4 -54
-10 -106 -13 l-95 -6 0 65 c0 82 24 222 50 290 25 66 66 110 100 106 21 -3 27
-11 37 -53z"/>
<path d="M6426 5745 c-85 -30 -169 -125 -216 -246 -53 -138 -85 -346 -130
-848 -24 -264 -20 -307 32 -367 53 -60 123 -54 181 16 30 35 45 80 54 163 3
31 9 57 12 57 3 0 46 -7 96 -15 102 -16 118 -29 111 -87 -18 -160 139 -255
233 -141 37 45 46 83 65 263 43 408 40 674 -9 859 -72 270 -246 411 -429 346z
m112 -418 c12 -12 29 -43 37 -67 21 -58 37 -228 29 -307 -5 -53 -9 -63 -26
-63 -21 0 -171 30 -177 35 -5 6 18 198 35 295 23 127 53 159 102 107z"/>
<path d="M4605 5727 c-68 -23 -98 -43 -153 -101 -84 -89 -128 -205 -153 -406
-8 -59 -13 -254 -13 -515 -1 -412 -1 -421 21 -460 28 -54 64 -85 106 -94 38
-9 97 7 127 34 31 28 58 106 65 189 l8 79 116 -8 c63 -4 123 -11 132 -15 11
-6 18 -29 22 -71 14 -126 75 -185 189 -180 37 1 103 62 120 109 18 50 17 582
-1 747 -37 341 -151 563 -341 664 -52 28 -77 35 -134 38 -41 1 -88 -3 -111
-10z m148 -427 c66 -57 117 -230 117 -394 l0 -69 -102 7 c-57 4 -115 9 -131
12 l-27 6 6 141 c7 172 20 274 40 304 20 32 57 29 97 -7z"/>
<path d="M3565 5439 c-79 -18 -114 -41 -161 -103 -25 -34 -47 -70 -49 -81 -3
-11 -16 -155 -30 -320 -15 -165 -37 -424 -51 -575 -28 -318 -30 -439 -10 -478
49 -94 175 -139 264 -93 84 43 112 98 133 255 14 109 10 104 109 130 226 61
394 213 466 421 25 70 28 95 28 205 1 105 -3 136 -22 195 -39 116 -81 185
-162 265 -143 143 -352 216 -515 179z m239 -504 c57 -75 65 -146 25 -226 -18
-36 -81 -99 -99 -99 -20 0 -3 275 21 337 12 31 22 29 53 -12z"/>
<path d="M5415 5393 c-82 -25 -125 -60 -162 -133 -31 -60 -33 -70 -28 -135 3
-38 16 -232 30 -430 26 -383 29 -424 45 -607 12 -141 17 -154 68 -200 72 -65
157 -63 223 3 22 22 45 52 50 67 6 15 11 81 10 148 l0 120 62 31 c150 74 261
192 319 338 27 69 32 96 36 195 5 136 -9 205 -65 320 -107 220 -374 349 -588
283z m239 -434 c42 -50 58 -88 58 -140 -1 -51 -25 -108 -63 -148 l-23 -24 -7
28 c-5 15 -11 85 -15 156 -9 168 -1 189 50 128z"/>
<path d="M7125 5374 c-58 -21 -98 -65 -139 -153 -56 -120 -70 -199 -69 -396 1
-256 39 -441 121 -585 78 -135 177 -220 258 -220 131 0 191 40 253 169 47 100
54 183 21 259 -26 59 -70 102 -105 102 -45 0 -70 -21 -105 -88 -21 -40 -42
-68 -53 -70 -11 -2 -33 9 -49 25 -54 50 -76 120 -97 310 -9 86 4 207 28 252
17 31 55 36 121 16 55 -17 61 -17 84 -1 89 58 85 260 -5 343 -55 50 -180 68
-264 37z"/>
<path d="M9997 4358 c-15 -5 -108 -75 -205 -155 -367 -300 -663 -461 -1016
-554 -272 -71 -516 -89 -667 -50 -136 35 -269 116 -359 218 -49 56 -126 116
-194 150 -40 20 -60 24 -103 21 -29 -3 -56 -8 -60 -11 -15 -15 -14 -120 2
-221 9 -59 15 -110 12 -112 -8 -9 -180 57 -312 121 -196 93 -299 135 -335 135
-20 0 -40 -9 -57 -26 -24 -24 -25 -30 -20 -97 4 -40 9 -81 12 -93 6 -20 2 -21
-64 -27 -110 -9 -154 -45 -136 -114 6 -27 64 -90 100 -111 19 -11 15 -16 -50
-75 -64 -59 -69 -66 -55 -82 20 -24 143 -130 167 -143 16 -10 13 -15 -31 -54
-44 -39 -48 -47 -42 -73 4 -16 26 -48 49 -70 36 -36 72 -54 247 -122 351 -138
512 -179 1040 -263 180 -28 206 -30 483 -30 161 0 331 4 377 10 170 20 682
144 826 201 139 54 411 190 559 279 268 162 575 393 728 547 78 79 86 91 72
103 -23 19 -64 -6 -309 -197 -241 -187 -376 -282 -552 -388 -376 -226 -799
-382 -1207 -444 -164 -25 -458 -44 -577 -36 -47 3 -128 8 -180 11 -120 7 -292
29 -440 55 -304 54 -697 171 -892 266 -76 37 -138 73 -138 80 0 22 82 15 207
-17 134 -35 150 -36 198 -13 40 19 43 33 15 79 -24 38 -60 53 -240 104 -122
34 -213 75 -243 108 -17 19 -17 20 14 26 60 12 117 6 232 -24 129 -33 145 -35
182 -18 58 26 14 84 -97 126 -110 42 -368 168 -368 181 0 5 3 16 6 24 6 16 64
3 335 -78 122 -36 153 -39 188 -16 30 20 -18 65 -163 154 -146 89 -183 118
-171 136 17 28 88 10 253 -65 307 -141 347 -154 412 -131 26 9 38 21 47 47 17
49 16 119 -3 201 -9 39 -13 73 -10 76 16 16 116 -49 209 -135 172 -158 261
-219 377 -258 45 -15 83 -19 205 -18 600 4 1091 210 1658 697 116 100 144 134
134 161 -7 18 -11 18 -50 4z"/>
</g>
</svg>
